<svg width="99" height="78" viewBox="0 0 99 78" fill="none" xmlns="http://www.w3.org/2000/svg">
<path d="M30.1729 51.125H20.1322L49.1973 1.05911L88.303 68.0591H10.303L15.0591 59.6447L73.1892 59.7498L49.1973 18.5191L30.1729 51.125Z" fill="black" stroke="black" stroke-width="0.267225"/>
<path d="M16.7844 76.9409H16.2256L14.4857 75.3872V76.9409H14.1132V73.7609H14.4857V75.092L16.3165 73.7609H16.6754L14.7719 75.1419L16.7844 76.9409ZM19.6611 74.1652C19.9095 74.462 20.0336 74.8572 20.0336 75.3509C20.0336 75.8446 19.9095 76.2413 19.6611 76.5411C19.4128 76.8379 19.0645 76.9863 18.6163 76.9863C18.165 76.9863 17.8152 76.8379 17.5669 76.5411C17.3185 76.2413 17.1944 75.8446 17.1944 75.3509C17.1944 74.8572 17.3185 74.462 17.5669 74.1652C17.8152 73.8654 18.165 73.7155 18.6163 73.7155C19.0645 73.7155 19.4128 73.8654 19.6611 74.1652ZM19.493 76.0778C19.5566 75.8718 19.5884 75.6295 19.5884 75.3509C19.5884 75.0723 19.5566 74.83 19.493 74.6241C19.4325 74.4181 19.328 74.25 19.1796 74.1198C19.0312 73.9896 18.8434 73.9245 18.6163 73.9245C18.2801 73.9245 18.0333 74.0547 17.8758 74.3151C17.7183 74.5756 17.6396 74.9208 17.6396 75.3509C17.6396 75.781 17.7183 76.1262 17.8758 76.3867C18.0333 76.6471 18.2801 76.7773 18.6163 76.7773C18.8434 76.7773 19.0312 76.7122 19.1796 76.582C19.328 76.4518 19.4325 76.2837 19.493 76.0778ZM24.1909 76.9409H23.8183L23.6684 74.3333L22.4237 76.9409H22.2556L21.0245 74.3651L20.8791 76.9409H20.6702L20.8519 73.7609H21.1517L22.4328 76.4457L23.7093 73.7609H24.0091L24.1909 76.9409ZM27.505 76.9409H27.1325V73.9699H25.3789V76.9409H25.0064V73.7609H27.505V76.9409ZM30.5487 76.9409H30.1762V73.9699H28.9178V74.8921C28.9178 75.6613 28.7028 76.3655 28.2727 77.0045L28.0955 76.8864C28.5044 76.2595 28.7088 75.5705 28.7088 74.8194V73.7609H30.5487V76.9409ZM33.8213 76.9409H31.5499V73.7609H33.7123V73.9699H31.9224V75.2464H33.367V75.4554H31.9224V76.7319H33.8213V76.9409ZM37.3109 76.9409H36.7521L35.0122 75.3872V76.9409H34.6397V73.7609H35.0122V75.092L36.843 73.7609H37.2019L35.2984 75.1419L37.3109 76.9409ZM40.0377 73.9699H38.9747V76.9409H38.6021V73.9699H37.5391V73.7609H40.0377V73.9699ZM42.7399 76.1686C42.7399 76.3958 42.6567 76.5896 42.4901 76.7501C42.3265 76.9076 42.1282 76.9863 41.895 76.9863C41.5285 76.9863 41.1848 76.9015 40.8638 76.7319V76.5911C40.9819 76.6426 41.1288 76.6865 41.3044 76.7228C41.4831 76.7592 41.6376 76.7773 41.7678 76.7773C41.9344 76.7773 42.0752 76.7183 42.1903 76.6002C42.3084 76.4821 42.3674 76.3382 42.3674 76.1686V75.251C42.0434 75.4175 41.6996 75.5008 41.3362 75.5008C41.106 75.5008 40.9077 75.4221 40.7411 75.2646C40.5745 75.1041 40.4912 74.9102 40.4912 74.6831V73.7609H40.8638V74.6831C40.8638 74.8527 40.9228 74.9966 41.0409 75.1147C41.159 75.2328 41.3014 75.2918 41.468 75.2918C41.5952 75.2918 41.7466 75.2752 41.9222 75.2419C42.0979 75.2055 42.2463 75.1616 42.3674 75.1101V73.7609H42.7399V76.1686ZM46.9433 74.1652C47.1916 74.462 47.3158 74.8572 47.3158 75.3509C47.3158 75.8446 47.1916 76.2413 46.9433 76.5411C46.695 76.8379 46.3467 76.9863 45.8984 76.9863C45.4654 76.9863 45.1247 76.8485 44.8763 76.5729C44.628 76.2943 44.4947 75.9218 44.4765 75.4554H44.1131V76.9409H43.7406V73.7609H44.1131V75.2464H44.4765C44.4947 74.78 44.628 74.409 44.8763 74.1334C45.1247 73.8548 45.4654 73.7155 45.8984 73.7155C46.3467 73.7155 46.695 73.8654 46.9433 74.1652ZM46.7752 76.0778C46.8388 75.8718 46.8706 75.6295 46.8706 75.3509C46.8706 75.0723 46.8388 74.83 46.7752 74.6241C46.7146 74.4181 46.6102 74.25 46.4618 74.1198C46.3134 73.9896 46.1256 73.9245 45.8984 73.9245C45.5623 73.9245 45.3155 74.0547 45.158 74.3151C45.0005 74.5756 44.9217 74.9208 44.9217 75.3509C44.9217 75.781 45.0005 76.1262 45.158 76.3867C45.3155 76.6471 45.5623 76.7773 45.8984 76.7773C46.1256 76.7773 46.3134 76.7122 46.4618 76.582C46.6102 76.4518 46.7146 76.2837 46.7752 76.0778ZM51.8417 77.6359H51.6327V76.9409H48.1347V73.7609H48.5072V76.7319H49.7111V73.7609H50.0836V76.7319H51.2829V73.7609H51.6554V76.7319H51.8417V77.6359ZM55.3288 76.9409H55.1198L55.1153 74.2697L52.9302 76.9409H52.6576L52.6531 73.7609H52.862L52.8666 76.4321L55.0517 73.7609H55.3242L55.3288 76.9409ZM58.5999 76.9409H56.3285V73.7609H58.4909V73.9699H56.701V75.2464H58.1456V75.4554H56.701V76.7319H58.5999V76.9409ZM63.2071 77.6359H62.9981V76.9409H60.9129V77.6359H60.704V76.7319H60.8902C61.184 75.7598 61.3309 74.7694 61.3309 73.7609H63.0208V76.7319H63.2071V77.6359ZM62.6483 76.7319V73.9699H61.5399C61.5399 74.9057 61.3975 75.8264 61.1128 76.7319H62.6483ZM66.0673 76.9409H65.6948V73.9699H64.4365V74.8921C64.4365 75.6613 64.2214 76.3655 63.7914 77.0045L63.6142 76.8864C64.0231 76.2595 64.2275 75.5705 64.2275 74.8194V73.7609H66.0673V76.9409ZM69.1764 76.9409H68.8039V75.4645C68.5434 75.5129 68.2936 75.5372 68.0543 75.5372L67.1094 76.9409H66.6597L67.6319 75.5008C67.3714 75.4493 67.1655 75.3524 67.014 75.2101C66.8656 75.0647 66.7914 74.8694 66.7914 74.6241C66.7914 74.3182 66.9065 74.091 67.1367 73.9426C67.3699 73.7912 67.6758 73.7155 68.0543 73.7155C68.3208 73.7155 68.5737 73.7306 68.813 73.7609H69.1764V76.9409ZM68.8039 75.2555V73.9699C68.5707 73.9396 68.3208 73.9245 68.0543 73.9245C67.8332 73.9245 67.6409 73.9911 67.4774 74.1243C67.3169 74.2576 67.2366 74.4242 67.2366 74.6241C67.2366 74.827 67.3169 74.995 67.4774 75.1283C67.6409 75.2616 67.8332 75.3282 68.0543 75.3282C68.2936 75.3282 68.5434 75.304 68.8039 75.2555ZM74.0648 74.1652C74.3131 74.462 74.4373 74.8572 74.4373 75.3509C74.4373 75.8446 74.3131 76.2413 74.0648 76.5411C73.8165 76.8379 73.4682 76.9863 73.02 76.9863C72.5687 76.9863 72.2189 76.8379 71.9706 76.5411C71.7222 76.2413 71.5981 75.8446 71.5981 75.3509C71.5981 74.8572 71.7222 74.462 71.9706 74.1652C72.2189 73.8654 72.5687 73.7155 73.02 73.7155C73.4682 73.7155 73.8165 73.8654 74.0648 74.1652ZM73.8967 76.0778C73.9603 75.8718 73.9921 75.6295 73.9921 75.3509C73.9921 75.0723 73.9603 74.83 73.8967 74.6241C73.8362 74.4181 73.7317 74.25 73.5833 74.1198C73.4349 73.9896 73.2471 73.9245 73.02 73.9245C72.6838 73.9245 72.437 74.0547 72.2795 74.3151C72.122 74.5756 72.0433 74.9208 72.0433 75.3509C72.0433 75.781 72.122 76.1262 72.2795 76.3867C72.437 76.6471 72.6838 76.7773 73.02 76.7773C73.2471 76.7773 73.4349 76.7122 73.5833 76.582C73.7317 76.4518 73.8362 76.2837 73.8967 76.0778ZM77.9267 76.9409H77.368L75.6281 75.3872V76.9409H75.2556V73.7609H75.6281V75.092L77.4588 73.7609H77.8177L75.9143 75.1419L77.9267 76.9409ZM80.8034 74.1652C81.0518 74.462 81.176 74.8572 81.176 75.3509C81.176 75.8446 81.0518 76.2413 80.8034 76.5411C80.5551 76.8379 80.2068 76.9863 79.7586 76.9863C79.3073 76.9863 78.9575 76.8379 78.7092 76.5411C78.4609 76.2413 78.3367 75.8446 78.3367 75.3509C78.3367 74.8572 78.4609 74.462 78.7092 74.1652C78.9575 73.8654 79.3073 73.7155 79.7586 73.7155C80.2068 73.7155 80.5551 73.8654 80.8034 74.1652ZM80.6354 76.0778C80.699 75.8718 80.7308 75.6295 80.7308 75.3509C80.7308 75.0723 80.699 74.83 80.6354 74.6241C80.5748 74.4181 80.4703 74.25 80.3219 74.1198C80.1735 73.9896 79.9857 73.9245 79.7586 73.9245C79.4224 73.9245 79.1756 74.0547 79.0181 74.3151C78.8606 74.5756 78.7819 74.9208 78.7819 75.3509C78.7819 75.781 78.8606 76.1262 79.0181 76.3867C79.1756 76.6471 79.4224 76.7773 79.7586 76.7773C79.9857 76.7773 80.1735 76.7122 80.3219 76.582C80.4703 76.4518 80.5748 76.2837 80.6354 76.0778ZM84.4928 76.9409H84.1202V75.4554H82.3667V76.9409H81.9942V73.7609H82.3667V75.2464H84.1202V73.7609H84.4928V76.9409Z" fill="black"/>
<path d="M11.3101 52.325V59.0687H9.77087V56.2597C9.77087 56.2404 9.75804 56.2276 9.73239 56.2212C9.71315 56.2148 9.69711 56.2212 9.68429 56.2404L8.8281 58.0298H7.62559L6.75978 56.25C6.74695 56.2244 6.73092 56.2148 6.71168 56.2212C6.69244 56.2276 6.68282 56.2436 6.68282 56.2693V59.0687H5.1436V52.325H6.577L8.18355 55.6536C8.19638 55.6664 8.20921 55.6728 8.22203 55.6728C8.24127 55.6728 8.2541 55.6664 8.26051 55.6536L9.86707 52.325H11.3101ZM14.3536 53.8835C14.3023 53.8835 14.2766 53.9092 14.2766 53.9605V55.2399C14.2766 55.2977 14.3023 55.3265 14.3536 55.3265H17.4801V56.8561H14.3536C14.3023 56.8561 14.2766 56.885 14.2766 56.9427V57.4429C14.2766 57.4942 14.3023 57.5199 14.3536 57.5199H18.2208V59.0591H12.7374V52.325H18.2208V53.8835H14.3536ZM24.5103 52.3539V53.8835H20.9605V59.0591H19.4309V52.3539H24.5103ZM31.4242 59.0687H29.7888L29.5387 58.3857C29.5258 58.3408 29.497 58.3184 29.4521 58.3184H26.5468C26.5083 58.3184 26.4795 58.3408 26.4602 58.3857L26.2197 59.0687H24.5843L27.0086 52.325H28.9999L31.4242 59.0687ZM27.0855 56.6541C27.0727 56.6862 27.0759 56.715 27.0952 56.7407C27.1144 56.7663 27.1401 56.7791 27.1721 56.7791H28.8364C28.9198 56.7791 28.9486 56.7375 28.923 56.6541L28.0956 54.3453C28.0764 54.3004 28.0443 54.2779 27.9994 54.2779C27.9546 54.2779 27.9257 54.3004 27.9129 54.3453L27.0855 56.6541ZM32.3293 52.325H37.9667V59.0495H36.4179V53.8643H33.8685V59.0495H32.3293V52.325ZM44.8651 53.3255C45.051 53.659 45.1601 54.0182 45.1921 54.403C45.2242 54.7814 45.2402 55.1822 45.2402 55.6055V56.2597H45.2306C45.2178 56.5483 45.1857 56.8272 45.1344 57.0966C45.0895 57.366 44.9997 57.6225 44.8651 57.8662C44.6278 58.2831 44.2879 58.5845 43.8453 58.7705C43.4477 58.9565 42.9218 59.0495 42.2676 59.0495C41.6263 59.0495 41.1004 58.9565 40.6899 58.7705C40.2538 58.5781 39.9171 58.2767 39.6798 57.8662C39.4938 57.5327 39.3848 57.1736 39.3527 56.7888C39.3207 56.404 39.3046 56.0031 39.3046 55.5863V54.9321H39.3143C39.3271 54.6435 39.3559 54.3645 39.4008 54.0951C39.4457 53.8258 39.5387 53.5692 39.6798 53.3255C39.9171 52.9151 40.2538 52.6136 40.6899 52.4212C41.1004 52.2353 41.6263 52.1423 42.2676 52.1423C42.9218 52.1423 43.4477 52.2353 43.8453 52.4212C44.2879 52.6072 44.6278 52.9087 44.8651 53.3255ZM43.6818 55.6055C43.6818 55.2977 43.6754 55.009 43.6625 54.7397C43.6497 54.4639 43.5984 54.2491 43.5086 54.0951C43.4958 54.0695 43.4701 54.0374 43.4317 53.9989C43.3996 53.954 43.3387 53.9124 43.2489 53.8739C43.1591 53.829 43.0372 53.7905 42.8833 53.7584C42.7294 53.7264 42.5242 53.7103 42.2676 53.7103C42.0175 53.7103 41.8123 53.7264 41.6519 53.7584C41.498 53.7905 41.3762 53.829 41.2864 53.8739C41.203 53.9124 41.1421 53.954 41.1036 53.9989C41.0715 54.0374 41.0491 54.0695 41.0363 54.0951C40.9465 54.2491 40.8952 54.4575 40.8823 54.7204C40.8695 54.9834 40.8631 55.2656 40.8631 55.567V55.5863C40.8631 55.8941 40.8695 56.1859 40.8823 56.4617C40.8952 56.731 40.9465 56.9427 41.0363 57.0966C41.0491 57.1158 41.0715 57.1479 41.1036 57.1928C41.1421 57.2377 41.203 57.2826 41.2864 57.3275C41.3762 57.366 41.498 57.4012 41.6519 57.4333C41.8123 57.4654 42.0175 57.4814 42.2676 57.4814C42.5242 57.4814 42.7294 57.4654 42.8833 57.4333C43.0372 57.4012 43.1591 57.366 43.2489 57.3275C43.3387 57.2826 43.3996 57.2377 43.4317 57.1928C43.4701 57.1479 43.4958 57.1158 43.5086 57.0966C43.5984 56.9427 43.6497 56.7343 43.6625 56.4713C43.6754 56.2084 43.6818 55.923 43.6818 55.6151V55.6055ZM52.5168 59.0591H50.8814L49.2267 54.4607C49.2139 54.4158 49.1818 54.3934 49.1305 54.3934C49.0856 54.3934 49.0568 54.4158 49.0439 54.4607L47.3893 59.0591H45.7539L48.1781 52.3154H50.0925L52.5168 59.0591ZM55.1233 52.325V55.846C55.1233 55.8588 55.1265 55.8684 55.1329 55.8749C55.1393 55.8749 55.1458 55.8684 55.1522 55.8556L57.538 52.325H58.9329V59.0687H57.3936V55.3458C57.3936 55.3329 57.3904 55.3265 57.384 55.3265C57.3776 55.3201 57.3712 55.3233 57.3648 55.3361L54.9501 59.0687H53.5841V52.325H55.1233ZM66.0899 58.1067L65.8687 58.2799C65.2145 58.7865 64.4641 59.0399 63.6175 59.0399C63.1494 59.0399 62.7004 58.9565 62.2707 58.7897C61.8475 58.623 61.4691 58.3825 61.1356 58.0682C60.7892 57.7412 60.5231 57.366 60.3371 56.9427C60.1511 56.5194 60.0581 56.0737 60.0581 55.6055C60.0581 55.1373 60.1511 54.6948 60.3371 54.2779C60.5231 53.8546 60.7892 53.4795 61.1356 53.1524C61.4691 52.8317 61.8475 52.588 62.2707 52.4212C62.7004 52.2545 63.1494 52.1711 63.6175 52.1711C64.4577 52.1711 65.2049 52.4244 65.859 52.9311L66.0803 53.0946L65.5416 54.7108L65.1087 54.3068C64.9098 54.1208 64.6822 53.9797 64.4256 53.8835C64.1755 53.7873 63.9062 53.7392 63.6175 53.7392C63.3289 53.7392 63.0564 53.7905 62.7998 53.8931C62.5497 53.9893 62.3253 54.1304 62.1264 54.3164C61.7416 54.682 61.5492 55.1117 61.5492 55.6055C61.5492 55.8492 61.5973 56.0833 61.6935 56.3078C61.7961 56.5258 61.9404 56.7214 62.1264 56.8946C62.3253 57.0806 62.5497 57.2249 62.7998 57.3275C63.0564 57.4237 63.3289 57.4718 63.6175 57.4718C63.9062 57.4718 64.1787 57.4237 64.4353 57.3275C64.6918 57.2249 64.9195 57.0806 65.1183 56.8946L65.5512 56.4905L66.0899 58.1067Z" fill="black"/>
</svg>
